<svg width="800" height="600" viewBox="0 0 800 600" fill="none" xmlns="http://www.w3.org/2000/svg">
  <defs>
    <linearGradient id="bgfr" x1="0" y1="0" x2="800" y2="600" gradientUnits="userSpaceOnUse">
      <stop stop-color="#C7D2FE"/>
      <stop offset="1" stop-color="#E0E7FF"/>
    </linearGradient>
    <linearGradient id="metalfr" x1="0" y1="0" x2="1" y2="1">
      <stop stop-color="#E0E7FF"/>
      <stop offset="1" stop-color="#818CF8"/>
    </linearGradient>
  </defs>
  <rect width="800" height="600" fill="url(#bgfr)"/>
  <rect x="160" y="80" width="480" height="440" rx="28" fill="#0F172A" opacity="0.1"/>
  <rect x="180" y="65" width="440" height="440" rx="26" fill="#FFFFFF"/>
  <rect x="215" y="100" width="370" height="370" rx="20" fill="url(#metalfr)" stroke="#4F46E5" stroke-width="8"/>
  <rect x="245" y="135" width="310" height="300" rx="14" fill="#C7D2FE" stroke="#6366F1" stroke-width="5"/>
  <g stroke="#4338CA" stroke-width="3" stroke-linecap="round">
    <path d="M400 190V370"/>
    <path d="M310 280H490"/>
    <path d="M340 220L460 340"/>
    <path d="M460 220L340 340"/>
    <path d="M400 190L390 205M400 190L410 205"/>
    <path d="M400 370L390 355M400 370L410 355"/>
    <path d="M310 280L325 270M310 280L325 290"/>
    <path d="M490 280L475 270M490 280L475 290"/>
  </g>
  <circle cx="400" cy="280" r="14" fill="#4F46E5"/>
  <rect x="260" y="485" width="280" height="12" rx="6" fill="#818CF8"/>
  <text x="60" y="548" fill="#0F172A" font-size="34" font-family="Arial, sans-serif" font-weight="700">FREEZER</text>
</svg>
