<svg width="800" height="600" viewBox="0 0 800 600" fill="none" xmlns="http://www.w3.org/2000/svg">
  <defs>
    <linearGradient id="bg200" x1="0" y1="0" x2="800" y2="600" gradientUnits="userSpaceOnUse">
      <stop stop-color="#DBEAFE"/>
      <stop offset="1" stop-color="#F8FAFC"/>
    </linearGradient>
    <linearGradient id="metal200" x1="0" y1="0" x2="1" y2="1">
      <stop stop-color="#F1F5F9"/>
      <stop offset="1" stop-color="#94A3B8"/>
    </linearGradient>
  </defs>
  <rect width="800" height="600" fill="url(#bg200)"/>
  <rect x="70" y="85" width="660" height="430" rx="30" fill="#0F172A" opacity="0.08"/>
  <rect x="90" y="70" width="620" height="430" rx="28" fill="#FFFFFF"/>
  <rect x="130" y="110" width="540" height="340" rx="22" fill="url(#metal200)" stroke="#64748B" stroke-width="8"/>
  <rect x="160" y="150" width="240" height="270" rx="14" fill="#DBEAFE" stroke="#60A5FA" stroke-width="6"/>
  <rect x="420" y="150" width="240" height="270" rx="14" fill="#DBEAFE" stroke="#60A5FA" stroke-width="6"/>
  <rect x="180" y="170" width="200" height="230" rx="10" fill="#E0F2FE"/>
  <rect x="440" y="170" width="200" height="230" rx="10" fill="#E0F2FE"/>
  <circle cx="375" cy="285" r="12" fill="#0F172A"/>
  <circle cx="425" cy="285" r="12" fill="#0F172A"/>
  <rect x="200" y="460" width="400" height="14" rx="7" fill="#94A3B8"/>
  <text x="60" y="548" fill="#0F172A" font-size="30" font-family="Arial, sans-serif" font-weight="700">MT-200B · BUILT-IN 200</text>
</svg>
